<svg width="330" height="52" viewBox="15 10 330 52" fill="none" xmlns="http://www.w3.org/2000/svg">
<path fill-rule="evenodd" clip-rule="evenodd" d="M64.8717 15.4598C64.8717 17.4091 63.2914 18.9894 61.3421 18.9894C59.3928 18.9894 57.8125 17.4091 57.8125 15.4598C57.8125 13.5104 59.3928 11.9302 61.3421 11.9302C63.2914 11.9302 64.8717 13.5104 64.8717 15.4598ZM34.6814 43.7633C32.6506 45.4006 29.8967 46.3454 26.996 46.3454H26.9933C20.1197 46.3454 15.1328 41.0427 15.1328 33.7397C15.1328 26.4367 20.5519 21.1339 28.0183 21.1339C35.4848 21.1339 40.9039 26.4367 40.9039 33.7397V45.927H34.6814V43.7633ZM34.6814 33.7397C34.6814 29.692 31.8998 26.7525 28.0654 26.7525C24.2588 26.7525 21.4966 29.6255 21.4966 33.7397C21.4966 37.8538 24.1701 40.7268 28.0654 40.7268C31.9607 40.7268 34.6814 37.7873 34.6814 33.7397ZM64.453 21.5521H58.2305V45.9269H64.453V21.5521ZM87.2374 33.4319C86.941 29.7389 84.2619 27.1263 80.6492 27.1263C77.0614 27.1263 74.4018 29.7389 74.1081 33.4319H67.7332C68.0601 26.4836 73.3711 21.5105 80.6021 21.5105C87.8331 21.5105 93.1441 26.4836 93.471 33.4319H87.2374ZM86.9125 36.5098C86.8183 36.8312 86.7047 37.1387 86.5718 37.4324L86.5717 37.4326C86.5606 37.4574 86.5496 37.4823 86.5385 37.5044C86.5219 37.5405 86.5052 37.5765 86.4859 37.6125C85.4137 39.7679 83.3026 41.1061 80.6457 41.1061C77.5843 41.1061 75.2543 39.3053 74.4149 36.5126H67.8765C68.8268 42.5744 73.4452 46.7662 79.5541 46.7662C82.4548 46.7662 85.2087 45.8214 87.2394 44.1841V46.9269C87.2394 46.9269 87.2034 48.6252 87.0233 49.5034C86.303 52.5482 83.8317 54.6066 80.6235 54.6066C77.4153 54.6066 74.9634 52.5288 74.2597 49.4646H67.8156C68.6467 55.8007 73.7583 60.2252 80.5792 60.2252C87.4001 60.2252 92.3344 55.9448 93.2929 49.7805H93.2957C93.2957 49.7805 93.304 49.7306 93.3179 49.6198L93.3303 49.5422L93.3428 49.4646H93.3373C93.3844 48.9881 93.4619 47.927 93.4647 45.971V36.5126H86.9125V36.5098ZM130.248 39.2638C130.951 39.9232 132.087 40.2113 133.625 40.1143L133.628 40.1116L134.825 40.0368V45.9157L133.827 46.0321C133.306 46.0931 132.797 46.1235 132.303 46.1235C129.84 46.1235 127.715 45.3755 126.086 43.9265C124.069 42.1313 123.003 39.4079 123.003 36.0528V14.3322H129.214V19.8926H133.414V25.5887H129.214V36.0556C129.214 37.5406 129.561 38.6183 130.248 39.2638ZM53.609 40.1725C52.3373 40.2334 51.4175 39.9979 50.8717 39.4743C50.3509 38.9756 50.0849 38.1279 50.0849 36.9532V12.2654H43.8984V37.0751C43.8984 40.1171 44.8737 42.5939 46.7188 44.2368C48.2065 45.5611 50.1874 46.262 52.4454 46.262C52.8942 46.262 53.3596 46.2343 53.8279 46.1789L55.033 46.0404V40.1005L53.609 40.1669V40.1725ZM109.454 20.7486C114.757 20.7486 119.126 24.7326 119.738 29.8719H119.744C119.791 30.2763 119.818 30.6891 119.818 31.1075V45.9268H113.435L113.427 31.3873C113.427 28.6445 111.202 26.4198 108.459 26.4198C105.215 26.4198 103.492 28.6445 103.492 31.3873V45.9268H97.0811V12.4316H103.464V22.6575C105.154 21.4579 107.221 20.7486 109.454 20.7486Z" fill="#282828"/>
<path fill-rule="evenodd" clip-rule="evenodd" d="M288.401 27.1228H283.925V22.5397H288.401V19.3422C288.401 14.8657 291.812 11.7748 296.608 11.7748C298.314 11.7748 300.232 11.9879 302.151 12.5209L301.298 17.104C300.125 16.7842 299.06 16.6776 298.207 16.6776C296.182 16.6776 294.796 18.0632 294.796 19.9817V22.5397H300.765V27.2294H294.796V45.9881H288.401V27.1228ZM237.243 12.2378H230.723V45.9881H237.243V38.4385L239.302 36.3795L247.538 45.9881H255.431L243.763 32.6046L254.973 20.8225H247.195L237.243 31.5751V12.2378ZM210.364 21.5736H215.575L216.461 25.3431C217.903 22.6823 220.674 21.1301 224 21.1301C224.887 21.1301 225.996 21.241 227.105 21.4627L226.44 26.5626C225.553 26.3409 224.444 26.23 223.446 26.23C219.455 26.23 217.016 29.1126 217.016 33.3255V45.9644H210.364V21.5736ZM147.259 21.593H140.605L148.923 45.9899H155.354L160.123 28.8012L165.113 45.9899H171.545L179.751 21.593H173.098L168.107 38.7817L163.228 21.593H157.129L152.139 38.7817L147.259 21.593ZM193.309 21.593C185.572 21.593 180.091 26.6439 180.091 33.9515C180.091 41.1516 185.464 46.31 193.309 46.31C201.154 46.31 206.635 41.2591 206.635 33.9515C206.635 26.6439 201.154 21.593 193.309 21.593ZM193.309 26.3215C197.285 26.3215 200.079 29.438 200.079 33.9515C200.079 38.3575 197.285 41.474 193.309 41.5815C189.333 41.5815 186.539 38.3575 186.539 33.9515C186.539 29.438 189.44 26.3215 193.309 26.3215ZM258.404 39.729V12.2379H264.773V39.0922C264.773 40.5782 265.728 41.4273 267.214 41.4273C267.851 41.4273 268.594 41.3212 269.443 41.1089L270.186 45.7792C268.594 46.0977 267.108 46.3099 265.728 46.3099C261.27 46.3099 258.404 43.7625 258.404 39.729ZM280.307 21.5482H273.912V45.988H280.307V21.5482ZM315.202 22.0063C307.847 22.0063 302.731 27.0158 302.731 34.2634C302.731 41.4045 308.167 46.5205 316.054 46.5205C318.932 46.5205 322.343 45.7744 325.754 44.1757L323.835 40.0189C321.277 41.2979 318.932 41.9374 316.8 41.9374C312.644 41.9374 309.553 39.486 309.126 35.7556H326.819C326.926 35.2227 326.926 34.4766 326.926 33.8371C326.926 26.8026 322.13 22.0063 315.202 22.0063ZM315.202 26.4828C318.399 26.4828 320.637 28.7211 320.851 32.0252H309.126C309.446 28.7211 311.898 26.4828 315.202 26.4828ZM273.805 15.4602C273.805 13.3422 275.285 11.9302 277.335 11.9302C279.384 11.9302 280.865 13.4598 280.865 15.4602C280.865 17.4605 279.384 18.9902 277.335 18.9902C275.285 18.9902 273.805 17.5782 273.805 15.4602ZM333.338 39.2499C331.388 39.2499 329.808 40.8299 329.808 42.7799C329.808 44.7299 331.388 46.3099 333.338 46.3099C335.288 46.3099 336.868 44.7299 336.868 42.7799C336.868 40.8299 335.288 39.2499 333.338 39.2499ZM333.338 45.7999C331.668 45.7999 330.318 44.4499 330.318 42.7799C330.318 41.1099 331.668 39.7499 333.338 39.7499C335.008 39.7499 336.368 41.1099 336.368 42.7799C336.368 44.4499 335.008 45.7999 333.338 45.7999ZM334.027 43.1599C334.497 43.0199 334.797 42.5899 334.797 42.0699C334.797 41.7299 334.667 41.4299 334.447 41.2199C334.227 41.0099 333.927 40.8899 333.577 40.8899H332.157V44.6699H332.827V43.2699H333.347L334.277 44.6699H335.047L334.027 43.1599ZM333.517 42.6699H332.827V41.4899H333.517C333.707 41.4899 333.857 41.5499 333.957 41.6499C334.067 41.7599 334.127 41.8999 334.127 42.0799C334.127 42.2599 334.067 42.4099 333.957 42.5099C333.857 42.6099 333.707 42.6699 333.517 42.6699Z" fill="url(#paint0_linear_16117_164029)"/>
<defs>
<linearGradient id="paint0_linear_16117_164029" x1="155.458" y1="15.4855" x2="207.778" y2="112.817" gradientUnits="userSpaceOnUse">
<stop stop-color="#FAEF60"/>
<stop offset="0.05" stop-color="#E1E878"/>
<stop offset="0.1182" stop-color="#C6E192"/>
<stop offset="0.1965" stop-color="#B0DAA7"/>
<stop offset="0.2879" stop-color="#9FD6B7"/>
<stop offset="0.401" stop-color="#94D2C3"/>
<stop offset="0.5596" stop-color="#8DD1C9"/>
<stop offset="0.941448" stop-color="#8BD0CB"/>
<stop offset="0.998697" stop-color="#45BDB4"/>
</linearGradient>
</defs>
</svg>
